<?xml version="1.0" encoding="UTF-8" standalone="no"?>
<!-- Created with Inkscape (http://www.inkscape.org/) -->

<svg
   xmlns:dc="http://purl.org/dc/elements/1.1/"
   xmlns:cc="http://creativecommons.org/ns#"
   xmlns:rdf="http://www.w3.org/1999/02/22-rdf-syntax-ns#"
   xmlns:svg="http://www.w3.org/2000/svg"
   xmlns="http://www.w3.org/2000/svg"
   xmlns:sodipodi="http://sodipodi.sourceforge.net/DTD/sodipodi-0.dtd"
   xmlns:inkscape="http://www.inkscape.org/namespaces/inkscape"
   width="730.02985"
   height="604.80432"
   id="svg2"
   version="1.1"
   inkscape:version="0.48.5 r10040"
   sodipodi:docname="Shenkar_College_of_Engineering_and_Design.svg">
  <defs
     id="defs4" />
  <sodipodi:namedview
     id="base"
     pagecolor="#ffffff"
     bordercolor="#666666"
     borderopacity="1.0"
     inkscape:pageopacity="0.0"
     inkscape:pageshadow="2"
     inkscape:zoom="0.49497475"
     inkscape:cx="892.4607"
     inkscape:cy="116.62099"
     inkscape:document-units="px"
     inkscape:current-layer="layer1"
     showgrid="false"
     inkscape:window-width="1680"
     inkscape:window-height="997"
     inkscape:window-x="-8"
     inkscape:window-y="-8"
     inkscape:window-maximized="1"
     fit-margin-top="0"
     fit-margin-left="0"
     fit-margin-right="0"
     fit-margin-bottom="0" />
  <metadata
     id="metadata7">
    <rdf:RDF>
      <cc:Work
         rdf:about="">
        <dc:format>image/svg+xml</dc:format>
        <dc:type
           rdf:resource="http://purl.org/dc/dcmitype/StillImage" />
        <dc:title />
      </cc:Work>
    </rdf:RDF>
  </metadata>
  <g
     inkscape:label="Calque 1"
     inkscape:groupmode="layer"
     id="layer1"
     transform="translate(-3.744436,-114.98255)">
    <path
       style="fill:#b81214;fill-opacity:1"
       d="m 291.02936,702.724 c -16.30737,-15.70617 -61.81381,-60.02952 -77.94527,-75.91882 l -17.21769,-16.95917 0,-31.83716 0,-31.83707 32.80085,0 32.80085,0 0,18.9606 0,18.96058 2.63217,2.18438 c 1.44769,1.20133 4.81889,4.24103 7.49155,6.75479 2.67267,2.51384 8.13947,7.46296 12.14846,10.99808 4.009,3.53521 8.40447,7.45714 9.76777,8.71539 l 2.4787,2.28773 10.87586,-10.33632 c 5.98174,-5.685 14.95339,-14.16309 19.93693,-18.84024 l 9.06097,-8.50393 0.0591,-82.79413 0.0592,-82.7942 32.80117,-0.22029 32.80109,-0.22038 -2.4e-4,83.02576 -3.2e-4,83.02575 10.73114,10.51944 c 5.90213,5.78566 14.5579,14.24277 19.23506,18.79343 l 8.50394,8.27399 2.83464,-2.47941 c 1.55904,-1.36363 6.29695,-5.66848 10.52866,-9.56635 4.23172,-3.89788 10.70077,-9.74599 14.37569,-12.99586 l 6.68165,-5.90886 -2.5e-4,-18.31259 -3.2e-4,-18.31251 32.80117,0.22037 32.8011,0.22029 -4e-4,29.74593 -4.1e-4,29.74583 -13.08625,13.76825 c -7.19739,7.57255 -16.93731,17.77726 -21.64418,22.67714 -4.70697,4.89988 -12.58435,13.10009 -17.50537,18.22269 -4.9211,5.1226 -15.33217,16.05622 -23.13578,24.29692 -7.80368,8.24072 -15.99564,16.88791 -18.20439,19.21605 l -4.01587,4.23292 -10.26449,-9.90222 c -5.64547,-5.44623 -21.13475,-20.50214 -34.42065,-33.45767 -13.28588,-12.95544 -25.55955,-24.77914 -27.27491,-26.27477 l -3.11876,-2.71932 -7.01443,7.24219 c -6.74961,6.96868 -51.04518,53.40699 -58.46157,61.28948 l -3.60696,3.83365 -7.28908,-7.02036 z M 75.191671,501.22247 l 0,-32.80085 123.509369,0 123.50938,0 0,32.80085 0,32.80085 -123.50938,0 -123.509369,0 z m 340.156959,0 0,-32.80085 90.19756,0 90.19748,0 15.29168,-17.09419 c 8.41038,-9.40186 15.2916,-17.3961 15.2916,-17.7651 0,-0.36891 -5.87411,-7.16354 -13.05361,-15.09916 -7.1795,-7.93562 -14.0454,-15.61288 -15.25758,-17.06058 l -2.20397,-2.63216 -18.1507,0 -18.15069,0 0,-32.3959 0,-32.3959 30.16868,0.0227 30.16869,0.0227 6.07423,5.74009 c 3.34082,3.15704 14.09221,13.42591 23.89197,22.8197 9.79976,9.39379 21.46893,20.5587 25.93146,24.81083 4.46254,4.2522 12.66907,12.10473 18.23679,17.45006 5.56772,5.34532 14.07117,13.49442 18.89669,18.10922 l 8.77354,8.39046 -3.5233,3.73921 c -1.93784,2.05658 -9.60611,9.94344 -17.04056,17.52627 -7.43446,7.58291 -15.8169,16.21196 -18.62765,19.17586 -6.80953,7.18039 -56.39543,57.92678 -58.96038,60.3402 l -2.01648,1.89743 -103.06772,0 -103.06773,0 0,-32.80085 z m -221.91192,-134.84794 0,-88.27883 32.80084,0 32.80086,0 0,88.27883 0,88.27883 -32.80086,0 -32.80084,0 z m 286.70372,0 0,-88.27883 32.80086,0 32.80085,0 0,88.27883 0,88.27883 -32.80085,0 -32.80086,0 z m -208.14366,-0.40495 0,-32.80085 96.37781,0 96.3778,0 0,32.80085 0,32.80085 -96.3778,0 -96.37781,0 z m -161.17682,25.2867 C 107.02971,387.59376 96.642778,377.69126 87.73787,369.25065 71.542997,353.90012 44.749886,328.33861 25.888911,310.24466 l -10.022645,-9.61513 3.948413,-4.17847 c 2.17166,-2.29815 11.376874,-11.70699 20.455906,-20.90852 9.079114,-9.20153 16.761478,-17.14113 17.071993,-17.64357 0.521979,-0.8446 8.166845,-8.67827 44.903072,-46.0124 l 13.74703,-13.97073 103.10888,0 103.10886,0 0,32.80085 0,32.80086 -90.15107,0 -90.15108,0 -15.33807,17.07081 c -8.43598,9.38896 -15.42694,17.31583 -15.53555,17.61527 -0.19073,0.52597 14.44234,17.03821 25.78237,29.09334 l 5.5235,5.87176 17.85402,0 17.85412,0 0,32.3959 0,32.39591 -30.16869,-0.0227 -30.16868,-0.0227 -6.89134,-6.65905 z m 225.15872,-170.25836 0,-95.97286 32.80086,0 32.80084,0 0,95.97286 0,95.97286 -32.80084,0 -32.80086,0 z m 79.36996,9.71877 0,-32.80085 121.07968,0 121.07969,0 0,32.80085 0,32.80086 -121.07969,0 -121.07968,0 z m -221.91192,-77.75016 0,-27.94147 32.80084,0 32.80086,0 0,27.94147 0,27.94146 -32.80086,0 -32.80084,0 z m 282.65424,0 0,-27.94147 32.80085,0 32.80085,0 0,27.94147 0,27.94146 -32.80085,0 -32.80085,0 z"
       id="path2996"
       inkscape:connector-curvature="0"
       sodipodi:nodetypes="cscccccccccsscsscccccccssccsscccccccssssscssscssccccccccccccccccsssscccccccssssscsssccccccccccccccccccccccccccccccccccsscsssscccccccscsccccccccccccccccccccccccccccccccccccccccccccc" />
  </g>
</svg>
